# Blender v3.2.0 OBJ File: ''
# www.blender.org
mtllib Leaf3.mtl
o Plane
v 2.100135 0.000000 -0.248384
v -0.000000 -1.380368 -0.043518
v -0.000000 1.380368 -0.043518
v -2.100135 0.000000 -0.129328
v 1.400901 0.733318 -0.148790
v 0.599099 1.298744 -0.053418
v 0.599099 -1.298744 -0.053419
v 1.400901 -0.733318 -0.148790
v -0.599099 1.298744 -0.053418
v -1.400901 0.733318 -0.102599
v -1.400901 -0.733318 -0.102599
v -0.599099 -1.298744 -0.053419
v 2.110006 0.000000 -0.179083
v 0.000000 -1.380368 0.026482
v 0.000000 1.380368 0.026482
v -2.102809 0.000000 -0.059379
v 1.409586 0.733318 -0.079331
v 0.602820 1.298744 0.016483
v 0.602820 -1.298744 0.016482
v 1.409586 -0.733318 -0.079331
v -0.601381 1.298744 0.016545
v -1.404770 0.733318 -0.032706
v -1.404770 -0.733318 -0.032706
v -0.601381 -1.298744 0.016544
vt 0.000000 0.500000
vt 1.000000 0.500000
vt 1.000000 0.799549
vt 0.000000 0.799549
vt 0.174631 1.000000
vt 0.825369 1.000000
vt 0.500000 1.000000
vt 0.825369 0.000000
vt 0.174631 0.000000
vt 0.500000 0.000000
vt 1.000000 0.200451
vt 0.000000 0.200451
vt 0.000000 0.500000
vt 0.000000 0.799549
vt 1.000000 0.799549
vt 1.000000 0.500000
vt 0.174631 1.000000
vt 0.500000 1.000000
vt 0.825369 1.000000
vt 0.825369 0.000000
vt 0.500000 0.000000
vt 0.174631 0.000000
vt 0.000000 0.200451
vt 1.000000 0.200451
vn -0.0001 0.7376 -0.6752
vn -0.0001 -0.7376 -0.6752
vn -0.2554 -0.7043 -0.6624
vn -0.2554 0.7043 -0.6624
vn -0.4366 0.5519 -0.7105
vn -0.4366 -0.5519 -0.7105
vn -0.7886 0.0000 -0.6149
vn 0.3871 -0.5566 -0.7351
vn 0.3871 0.5566 -0.7351
vn 0.7290 0.0000 -0.6845
vn 0.2421 -0.7071 -0.6644
vn 0.2421 0.7071 -0.6644
vn -0.0000 0.7325 0.6807
vn -0.2951 0.6985 0.6520
vn -0.2951 -0.6985 0.6520
vn -0.0000 -0.7325 0.6807
vn -0.5121 0.5511 0.6588
vn -0.8392 -0.0000 0.5438
vn -0.5121 -0.5511 0.6588
vn 0.5515 -0.5503 0.6270
vn 0.8862 0.0000 0.4634
vn 0.5515 0.5503 0.6270
vn 0.3057 0.6963 0.6494
vn 0.3057 -0.6963 0.6494
usemtl None
s 1
f 3/1/1 2/2/2 12/3/3 9/4/4
f 10/5/5 11/6/6 4/7/7
f 8/8/8 5/9/9 1/10/10
f 5/9/9 8/8/8 7/11/11 6/12/12
f 11/6/6 10/5/5 9/4/4 12/3/3
f 6/12/12 7/11/11 2/2/2 3/1/1
f 15/13/13 21/14/14 24/15/15 14/16/16
f 22/17/17 16/18/18 23/19/19
f 20/20/20 13/21/21 17/22/22
f 17/22/22 18/23/23 19/24/24 20/20/20
f 23/19/19 24/15/15 21/14/14 22/17/17
f 18/23/23 15/13/13 14/16/16 19/24/24
f 5/9/9 6/12/12 18/23/23 17/22/22
f 7/11/11 8/8/8 20/20/20 19/24/24
f 11/6/6 12/3/3 24/15/15 23/19/19
f 9/4/4 10/5/5 22/17/17 21/14/14
f 6/12/12 3/1/1 15/13/13 18/23/23
f 2/2/2 7/11/11 19/24/24 14/16/16
f 8/8/8 1/10/10 13/21/21 20/20/20
f 1/10/10 5/9/9 17/22/22 13/21/21
f 10/5/5 4/7/7 16/18/18 22/17/17
f 4/7/7 11/6/6 23/19/19 16/18/18
f 3/1/1 9/4/4 21/14/14 15/13/13
f 12/3/3 2/2/2 14/16/16 24/15/15
